<mxfile host="Electron" modified="2024-04-01T17:50:47.199Z" agent="Mozilla/5.0 (Windows NT 10.0; Win64; x64) AppleWebKit/537.36 (KHTML, like Gecko) draw.io/23.1.5 Chrome/120.0.6099.109 Electron/28.1.0 Safari/537.36" etag="JGxUPDwssIJXbZepPxz0" version="23.1.5" type="device">
  <diagram name="Page-1" id="2zx9Xnp8U7PzQBNnEimN">
    <mxGraphModel dx="1235" dy="740" grid="1" gridSize="10" guides="1" tooltips="1" connect="1" arrows="1" fold="1" page="1" pageScale="1" pageWidth="850" pageHeight="1100" math="0" shadow="0">
      <root>
        <mxCell id="0" />
        <mxCell id="1" parent="0" />
        <mxCell id="aPlCoS5utpTqL6tOqj2--1" value="&lt;b style=&quot;font-weight:normal;&quot; id=&quot;docs-internal-guid-bb8b0dc3-7fff-5e79-dfc9-e86ac7385494&quot;&gt;&lt;div dir=&quot;ltr&quot; style=&quot;margin-left:0pt;&quot; align=&quot;left&quot;&gt;&lt;table style=&quot;border:none;border-collapse:collapse;&quot;&gt;&lt;colgroup&gt;&lt;col width=&quot;137&quot;&gt;&lt;col width=&quot;455&quot;&gt;&lt;/colgroup&gt;&lt;tbody&gt;&lt;tr style=&quot;height:30.75pt&quot;&gt;&lt;td style=&quot;border-left:solid #000000 0.6000000000000001pt;border-right:solid #000000 0.6000000000000001pt;border-bottom:solid #000000 0.6000000000000001pt;border-top:solid #000000 0.6000000000000001pt;vertical-align:top;padding:5pt 5pt 5pt 5pt;overflow:hidden;overflow-wrap:break-word;&quot;&gt;&lt;p dir=&quot;ltr&quot; style=&quot;line-height:1.38;margin-top:18pt;margin-bottom:0pt;&quot;&gt;&lt;span style=&quot;font-size: 11pt; font-family: &amp;quot;Times New Roman&amp;quot;, serif; color: rgb(0, 0, 0); background-color: transparent; font-weight: 400; font-style: normal; font-variant: normal; text-decoration: none; vertical-align: baseline;&quot;&gt;Use Case ID&lt;/span&gt;&lt;/p&gt;&lt;/td&gt;&lt;td style=&quot;border-left:solid #000000 0.6000000000000001pt;border-right:solid #000000 0.6000000000000001pt;border-bottom:solid #000000 0.6000000000000001pt;border-top:solid #000000 0.6000000000000001pt;vertical-align:top;padding:5pt 5pt 5pt 5pt;overflow:hidden;overflow-wrap:break-word;&quot;&gt;&lt;p dir=&quot;ltr&quot; style=&quot;line-height:1.38;margin-top:18pt;margin-bottom:0pt;&quot;&gt;&lt;span style=&quot;font-size: 11pt; font-family: &amp;quot;Times New Roman&amp;quot;, serif; color: rgb(0, 0, 0); background-color: transparent; font-weight: 400; font-style: normal; font-variant: normal; text-decoration: none; vertical-align: baseline;&quot;&gt;1.1&lt;/span&gt;&lt;/p&gt;&lt;/td&gt;&lt;/tr&gt;&lt;tr style=&quot;height:51.75pt&quot;&gt;&lt;td style=&quot;border-left:solid #000000 0.6000000000000001pt;border-right:solid #000000 0.6000000000000001pt;border-bottom:solid #000000 0.6000000000000001pt;border-top:solid #000000 0.6000000000000001pt;vertical-align:top;padding:5pt 5pt 5pt 5pt;overflow:hidden;overflow-wrap:break-word;&quot;&gt;&lt;p dir=&quot;ltr&quot; style=&quot;line-height:1.38;margin-top:18pt;margin-bottom:0pt;&quot;&gt;&lt;span style=&quot;font-size: 11pt; font-family: &amp;quot;Times New Roman&amp;quot;, serif; color: rgb(0, 0, 0); background-color: transparent; font-weight: 400; font-style: normal; font-variant: normal; text-decoration: none; vertical-align: baseline;&quot;&gt;Use Case name&lt;/span&gt;&lt;/p&gt;&lt;/td&gt;&lt;td style=&quot;border-left:solid #000000 0.6000000000000001pt;border-right:solid #000000 0.6000000000000001pt;border-bottom:solid #000000 0.6000000000000001pt;border-top:solid #000000 0.6000000000000001pt;vertical-align:top;padding:5pt 5pt 5pt 5pt;overflow:hidden;overflow-wrap:break-word;&quot;&gt;&lt;p dir=&quot;ltr&quot; style=&quot;line-height:1.38;margin-top:18pt;margin-bottom:0pt;&quot;&gt;&lt;span style=&quot;font-size: 11pt; font-family: &amp;quot;Times New Roman&amp;quot;, serif; color: rgb(0, 0, 0); background-color: transparent; font-weight: 400; font-style: normal; font-variant: normal; text-decoration: none; vertical-align: baseline;&quot;&gt;Lập bảng công&lt;/span&gt;&lt;/p&gt;&lt;/td&gt;&lt;/tr&gt;&lt;tr style=&quot;height:51.75pt&quot;&gt;&lt;td style=&quot;border-left:solid #000000 0.6000000000000001pt;border-right:solid #000000 0.6000000000000001pt;border-bottom:solid #000000 0.6000000000000001pt;border-top:solid #000000 0.6000000000000001pt;vertical-align:top;padding:5pt 5pt 5pt 5pt;overflow:hidden;overflow-wrap:break-word;&quot;&gt;&lt;p dir=&quot;ltr&quot; style=&quot;line-height:1.38;margin-top:18pt;margin-bottom:0pt;&quot;&gt;&lt;span style=&quot;font-size: 11pt; font-family: &amp;quot;Times New Roman&amp;quot;, serif; color: rgb(0, 0, 0); background-color: transparent; font-weight: 400; font-style: normal; font-variant: normal; text-decoration: none; vertical-align: baseline;&quot;&gt;Description&lt;/span&gt;&lt;/p&gt;&lt;/td&gt;&lt;td style=&quot;border-left:solid #000000 0.6000000000000001pt;border-right:solid #000000 0.6000000000000001pt;border-bottom:solid #000000 0.6000000000000001pt;border-top:solid #000000 0.6000000000000001pt;vertical-align:top;padding:5pt 5pt 5pt 5pt;overflow:hidden;overflow-wrap:break-word;&quot;&gt;&lt;p dir=&quot;ltr&quot; style=&quot;line-height:1.38;margin-top:18pt;margin-bottom:0pt;&quot;&gt;&lt;span style=&quot;font-size: 11pt; font-family: &amp;quot;Times New Roman&amp;quot;, serif; color: rgb(0, 0, 0); background-color: transparent; font-weight: 400; font-style: normal; font-variant: normal; text-decoration: none; vertical-align: baseline;&quot;&gt;Là kế toán, tôi sẽ lập bảng công của nhân viên&lt;/span&gt;&lt;/p&gt;&lt;/td&gt;&lt;/tr&gt;&lt;tr style=&quot;height:30.75pt&quot;&gt;&lt;td style=&quot;border-left:solid #000000 0.6000000000000001pt;border-right:solid #000000 0.6000000000000001pt;border-bottom:solid #000000 0.6000000000000001pt;border-top:solid #000000 0.6000000000000001pt;vertical-align:top;padding:5pt 5pt 5pt 5pt;overflow:hidden;overflow-wrap:break-word;&quot;&gt;&lt;p dir=&quot;ltr&quot; style=&quot;line-height:1.38;margin-top:18pt;margin-bottom:0pt;&quot;&gt;&lt;span style=&quot;font-size: 11pt; font-family: &amp;quot;Times New Roman&amp;quot;, serif; color: rgb(0, 0, 0); background-color: transparent; font-weight: 400; font-style: normal; font-variant: normal; text-decoration: none; vertical-align: baseline;&quot;&gt;Actors&lt;/span&gt;&lt;/p&gt;&lt;/td&gt;&lt;td style=&quot;border-left:solid #000000 0.6000000000000001pt;border-right:solid #000000 0.6000000000000001pt;border-bottom:solid #000000 0.6000000000000001pt;border-top:solid #000000 0.6000000000000001pt;vertical-align:top;padding:5pt 5pt 5pt 5pt;overflow:hidden;overflow-wrap:break-word;&quot;&gt;&lt;p dir=&quot;ltr&quot; style=&quot;line-height:1.38;margin-top:18pt;margin-bottom:0pt;&quot;&gt;&lt;span style=&quot;font-size: 11pt; font-family: &amp;quot;Times New Roman&amp;quot;, serif; color: rgb(0, 0, 0); background-color: transparent; font-weight: 400; font-style: normal; font-variant: normal; text-decoration: none; vertical-align: baseline;&quot;&gt;Kế toán&lt;/span&gt;&lt;/p&gt;&lt;/td&gt;&lt;/tr&gt;&lt;tr style=&quot;height:30.75pt&quot;&gt;&lt;td style=&quot;border-left:solid #000000 0.6000000000000001pt;border-right:solid #000000 0.6000000000000001pt;border-bottom:solid #000000 0.6000000000000001pt;border-top:solid #000000 0.6000000000000001pt;vertical-align:top;padding:5pt 5pt 5pt 5pt;overflow:hidden;overflow-wrap:break-word;&quot;&gt;&lt;p dir=&quot;ltr&quot; style=&quot;line-height:1.38;margin-top:18pt;margin-bottom:0pt;&quot;&gt;&lt;span style=&quot;font-size: 11pt; font-family: &amp;quot;Times New Roman&amp;quot;, serif; color: rgb(0, 0, 0); background-color: transparent; font-weight: 400; font-style: normal; font-variant: normal; text-decoration: none; vertical-align: baseline;&quot;&gt;Priority&lt;/span&gt;&lt;/p&gt;&lt;/td&gt;&lt;td style=&quot;border-left:solid #000000 0.6000000000000001pt;border-right:solid #000000 0.6000000000000001pt;border-bottom:solid #000000 0.6000000000000001pt;border-top:solid #000000 0.6000000000000001pt;vertical-align:top;padding:5pt 5pt 5pt 5pt;overflow:hidden;overflow-wrap:break-word;&quot;&gt;&lt;p dir=&quot;ltr&quot; style=&quot;line-height:1.38;margin-top:18pt;margin-bottom:0pt;&quot;&gt;&lt;span style=&quot;font-size: 11pt; font-family: &amp;quot;Times New Roman&amp;quot;, serif; color: rgb(0, 0, 0); background-color: transparent; font-weight: 400; font-style: normal; font-variant: normal; text-decoration: none; vertical-align: baseline;&quot;&gt;High&lt;/span&gt;&lt;/p&gt;&lt;/td&gt;&lt;/tr&gt;&lt;tr style=&quot;height:30.75pt&quot;&gt;&lt;td style=&quot;border-left:solid #000000 0.6000000000000001pt;border-right:solid #000000 0.6000000000000001pt;border-bottom:solid #000000 0.6000000000000001pt;border-top:solid #000000 0.6000000000000001pt;vertical-align:top;padding:5pt 5pt 5pt 5pt;overflow:hidden;overflow-wrap:break-word;&quot;&gt;&lt;p dir=&quot;ltr&quot; style=&quot;line-height:1.38;margin-top:18pt;margin-bottom:0pt;&quot;&gt;&lt;span style=&quot;font-size: 11pt; font-family: &amp;quot;Times New Roman&amp;quot;, serif; color: rgb(0, 0, 0); background-color: transparent; font-weight: 400; font-style: normal; font-variant: normal; text-decoration: none; vertical-align: baseline;&quot;&gt;Triggers&lt;/span&gt;&lt;/p&gt;&lt;/td&gt;&lt;td style=&quot;border-left:solid #000000 0.6000000000000001pt;border-right:solid #000000 0.6000000000000001pt;border-bottom:solid #000000 0.6000000000000001pt;border-top:solid #000000 0.6000000000000001pt;vertical-align:top;padding:5pt 5pt 5pt 5pt;overflow:hidden;overflow-wrap:break-word;&quot;&gt;&lt;p dir=&quot;ltr&quot; style=&quot;line-height:1.38;margin-top:18pt;margin-bottom:0pt;&quot;&gt;&lt;span style=&quot;font-size: 11pt; font-family: &amp;quot;Times New Roman&amp;quot;, serif; color: rgb(0, 0, 0); background-color: transparent; font-weight: 400; font-style: normal; font-variant: normal; text-decoration: none; vertical-align: baseline;&quot;&gt;Kế toán chọn mở chức năng lập bảng công&lt;/span&gt;&lt;/p&gt;&lt;/td&gt;&lt;/tr&gt;&lt;tr style=&quot;height:90pt&quot;&gt;&lt;td style=&quot;border-left:solid #000000 0.6000000000000001pt;border-right:solid #000000 0.6000000000000001pt;border-bottom:solid #000000 0.6000000000000001pt;border-top:solid #000000 0.6000000000000001pt;vertical-align:top;padding:5pt 5pt 5pt 5pt;overflow:hidden;overflow-wrap:break-word;&quot;&gt;&lt;p dir=&quot;ltr&quot; style=&quot;line-height:1.38;margin-top:18pt;margin-bottom:0pt;&quot;&gt;&lt;span style=&quot;font-size: 11pt; font-family: &amp;quot;Times New Roman&amp;quot;, serif; color: rgb(0, 0, 0); background-color: transparent; font-weight: 400; font-style: normal; font-variant: normal; text-decoration: none; vertical-align: baseline;&quot;&gt;Pre-conditions&lt;/span&gt;&lt;/p&gt;&lt;/td&gt;&lt;td style=&quot;border-left:solid #000000 0.6000000000000001pt;border-right:solid #000000 0.6000000000000001pt;border-bottom:solid #000000 0.6000000000000001pt;border-top:solid #000000 0.6000000000000001pt;vertical-align:top;padding:5pt 5pt 5pt 5pt;overflow:hidden;overflow-wrap:break-word;&quot;&gt;&lt;p dir=&quot;ltr&quot; style=&quot;line-height:1.38;margin-top:18pt;margin-bottom:0pt;&quot;&gt;&lt;span style=&quot;font-size: 11pt; font-family: &amp;quot;Times New Roman&amp;quot;, serif; color: rgb(0, 0, 0); background-color: transparent; font-weight: 400; font-style: normal; font-variant: normal; text-decoration: none; vertical-align: baseline;&quot;&gt;1. Tồn tại dữ liệu công&lt;/span&gt;&lt;/p&gt;&lt;p dir=&quot;ltr&quot; style=&quot;line-height:1.38;margin-top:18pt;margin-bottom:0pt;&quot;&gt;&lt;span style=&quot;font-size: 11pt; font-family: &amp;quot;Times New Roman&amp;quot;, serif; color: rgb(0, 0, 0); background-color: transparent; font-weight: 400; font-style: normal; font-variant: normal; text-decoration: none; vertical-align: baseline;&quot;&gt;2. Ngày công phải nằm trong kỳ chấm công quy định theo tháng&lt;/span&gt;&lt;/p&gt;&lt;/td&gt;&lt;/tr&gt;&lt;tr style=&quot;height:152.25pt&quot;&gt;&lt;td style=&quot;border-left:solid #000000 0.6000000000000001pt;border-right:solid #000000 0.6000000000000001pt;border-bottom:solid #000000 0.6000000000000001pt;border-top:solid #000000 0.6000000000000001pt;vertical-align:top;padding:5pt 5pt 5pt 5pt;overflow:hidden;overflow-wrap:break-word;&quot;&gt;&lt;p dir=&quot;ltr&quot; style=&quot;line-height:1.38;margin-top:18pt;margin-bottom:0pt;&quot;&gt;&lt;span style=&quot;font-size: 11pt; font-family: &amp;quot;Times New Roman&amp;quot;, serif; color: rgb(0, 0, 0); background-color: transparent; font-weight: 400; font-style: normal; font-variant: normal; text-decoration: none; vertical-align: baseline;&quot;&gt;Post-conditions&lt;/span&gt;&lt;/p&gt;&lt;/td&gt;&lt;td style=&quot;border-left:solid #000000 0.6000000000000001pt;border-right:solid #000000 0.6000000000000001pt;border-bottom:solid #000000 0.6000000000000001pt;border-top:solid #000000 0.6000000000000001pt;vertical-align:top;padding:5pt 5pt 5pt 5pt;overflow:hidden;overflow-wrap:break-word;&quot;&gt;&lt;p dir=&quot;ltr&quot; style=&quot;line-height:1.38;margin-top:18pt;margin-bottom:0pt;&quot;&gt;&lt;span style=&quot;font-size: 11pt; font-family: &amp;quot;Times New Roman&amp;quot;, serif; color: rgb(0, 0, 0); background-color: transparent; font-weight: 400; font-style: normal; font-variant: normal; text-decoration: none; vertical-align: baseline;&quot;&gt;1. Bảng công cá nhân và bảng công tổng hợp được tạo ra&lt;/span&gt;&lt;/p&gt;&lt;p dir=&quot;ltr&quot; style=&quot;line-height:1.38;margin-top:18pt;margin-bottom:0pt;&quot;&gt;&lt;span style=&quot;font-size: 11pt; font-family: &amp;quot;Times New Roman&amp;quot;, serif; color: rgb(0, 0, 0); background-color: transparent; font-weight: 400; font-style: normal; font-variant: normal; text-decoration: none; vertical-align: baseline;&quot;&gt;2. Bảng công được lưu vào hệ thống&lt;/span&gt;&lt;/p&gt;&lt;p dir=&quot;ltr&quot; style=&quot;line-height:1.38;margin-top:18pt;margin-bottom:0pt;&quot;&gt;&lt;span style=&quot;font-size: 11pt; font-family: &amp;quot;Times New Roman&amp;quot;, serif; color: rgb(0, 0, 0); background-color: transparent; font-weight: 400; font-style: normal; font-variant: normal; text-decoration: none; vertical-align: baseline;&quot;&gt;3. Bảng công cá nhân được chuyển cho nhân viên&lt;/span&gt;&lt;/p&gt;&lt;p dir=&quot;ltr&quot; style=&quot;line-height:1.38;margin-top:18pt;margin-bottom:0pt;&quot;&gt;&lt;span style=&quot;font-size: 11pt; font-family: &amp;quot;Times New Roman&amp;quot;, serif; color: rgb(0, 0, 0); background-color: transparent; font-weight: 400; font-style: normal; font-variant: normal; text-decoration: none; vertical-align: baseline;&quot;&gt;4. Bảng công tổng hợp được chuyển qua tính lương&lt;/span&gt;&lt;/p&gt;&lt;/td&gt;&lt;/tr&gt;&lt;tr style=&quot;height:177.2962646484375pt&quot;&gt;&lt;td style=&quot;border-left:solid #000000 0.6000000000000001pt;border-right:solid #000000 0.6000000000000001pt;border-bottom:solid #000000 0.6000000000000001pt;border-top:solid #000000 0.6000000000000001pt;vertical-align:top;padding:5pt 5pt 5pt 5pt;overflow:hidden;overflow-wrap:break-word;&quot;&gt;&lt;p dir=&quot;ltr&quot; style=&quot;line-height:1.38;margin-top:18pt;margin-bottom:0pt;&quot;&gt;&lt;span style=&quot;font-size: 11pt; font-family: &amp;quot;Times New Roman&amp;quot;, serif; color: rgb(0, 0, 0); background-color: transparent; font-weight: 400; font-style: normal; font-variant: normal; text-decoration: none; vertical-align: baseline;&quot;&gt;Main flow&lt;/span&gt;&lt;/p&gt;&lt;/td&gt;&lt;td style=&quot;border-left:solid #000000 0.6000000000000001pt;border-right:solid #000000 0.6000000000000001pt;border-bottom:solid #000000 0.6000000000000001pt;border-top:solid #000000 0.6000000000000001pt;vertical-align:top;padding:5pt 5pt 5pt 5pt;overflow:hidden;overflow-wrap:break-word;&quot;&gt;&lt;ol style=&quot;margin-top:0;margin-bottom:0;padding-inline-start:48px;&quot;&gt;&lt;li dir=&quot;ltr&quot; style=&quot;list-style-type: decimal; font-size: 11pt; font-family: &amp;quot;Times New Roman&amp;quot;, serif; color: rgb(0, 0, 0); background-color: transparent; font-weight: 400; font-style: normal; font-variant: normal; text-decoration: none; vertical-align: baseline;&quot; aria-level=&quot;1&quot;&gt;&lt;p dir=&quot;ltr&quot; style=&quot;line-height:1.38;margin-top:0pt;margin-bottom:0pt;&quot; role=&quot;presentation&quot;&gt;&lt;span style=&quot;font-size: 11pt; font-family: &amp;quot;Times New Roman&amp;quot;, serif; color: rgb(0, 0, 0); background-color: transparent; font-weight: 400; font-style: normal; font-variant: normal; text-decoration: none; vertical-align: baseline;&quot;&gt;Chọn chức năng lập bảng công&lt;/span&gt;&lt;/p&gt;&lt;/li&gt;&lt;li dir=&quot;ltr&quot; style=&quot;list-style-type: decimal; font-size: 11pt; font-family: &amp;quot;Times New Roman&amp;quot;, serif; color: rgb(0, 0, 0); background-color: transparent; font-weight: 400; font-style: normal; font-variant: normal; text-decoration: none; vertical-align: baseline;&quot; aria-level=&quot;1&quot;&gt;&lt;p dir=&quot;ltr&quot; style=&quot;line-height:1.38;margin-top:0pt;margin-bottom:0pt;&quot; role=&quot;presentation&quot;&gt;&lt;span style=&quot;font-size: 11pt; font-family: &amp;quot;Times New Roman&amp;quot;, serif; color: rgb(0, 0, 0); background-color: transparent; font-weight: 400; font-style: normal; font-variant: normal; text-decoration: none; vertical-align: baseline;&quot;&gt;Lấy dữ liệu chấm công đã được ghi nhận từ phần mềm chấm công&lt;/span&gt;&lt;/p&gt;&lt;/li&gt;&lt;li dir=&quot;ltr&quot; style=&quot;list-style-type: decimal; font-size: 11pt; font-family: &amp;quot;Times New Roman&amp;quot;, serif; color: rgb(0, 0, 0); background-color: transparent; font-weight: 400; font-style: normal; font-variant: normal; text-decoration: none; vertical-align: baseline;&quot; aria-level=&quot;1&quot;&gt;&lt;p dir=&quot;ltr&quot; style=&quot;line-height:1.38;margin-top:0pt;margin-bottom:0pt;&quot; role=&quot;presentation&quot;&gt;&lt;span style=&quot;font-size: 11pt; font-family: &amp;quot;Times New Roman&amp;quot;, serif; color: rgb(0, 0, 0); background-color: transparent; font-weight: 400; font-style: normal; font-variant: normal; text-decoration: none; vertical-align: baseline;&quot;&gt;Kiểm tra dữ liệu chấm công&lt;/span&gt;&lt;/p&gt;&lt;/li&gt;&lt;li dir=&quot;ltr&quot; style=&quot;list-style-type: decimal; font-size: 11pt; font-family: &amp;quot;Times New Roman&amp;quot;, serif; color: rgb(0, 0, 0); background-color: transparent; font-weight: 400; font-style: normal; font-variant: normal; text-decoration: none; vertical-align: baseline;&quot; aria-level=&quot;1&quot;&gt;&lt;p dir=&quot;ltr&quot; style=&quot;line-height:1.38;margin-top:0pt;margin-bottom:0pt;&quot; role=&quot;presentation&quot;&gt;&lt;span style=&quot;font-size: 11pt; font-family: &amp;quot;Times New Roman&amp;quot;, serif; color: rgb(0, 0, 0); background-color: transparent; font-weight: 400; font-style: normal; font-variant: normal; text-decoration: none; vertical-align: baseline;&quot;&gt;Tự động lập bảng công cá nhân và bảng công tổng hợp&amp;nbsp;&lt;/span&gt;&lt;/p&gt;&lt;/li&gt;&lt;li dir=&quot;ltr&quot; style=&quot;list-style-type: decimal; font-size: 11pt; font-family: &amp;quot;Times New Roman&amp;quot;, serif; color: rgb(0, 0, 0); background-color: transparent; font-weight: 400; font-style: normal; font-variant: normal; text-decoration: none; vertical-align: baseline;&quot; aria-level=&quot;1&quot;&gt;&lt;p dir=&quot;ltr&quot; style=&quot;line-height:1.38;margin-top:0pt;margin-bottom:0pt;&quot; role=&quot;presentation&quot;&gt;&lt;span style=&quot;font-size: 11pt; font-family: &amp;quot;Times New Roman&amp;quot;, serif; color: rgb(0, 0, 0); background-color: transparent; font-weight: 400; font-style: normal; font-variant: normal; text-decoration: none; vertical-align: baseline;&quot;&gt;Lưu bảng công vào hệ thống&lt;/span&gt;&lt;/p&gt;&lt;/li&gt;&lt;li dir=&quot;ltr&quot; style=&quot;list-style-type: decimal; font-size: 11pt; font-family: &amp;quot;Times New Roman&amp;quot;, serif; color: rgb(0, 0, 0); background-color: transparent; font-weight: 400; font-style: normal; font-variant: normal; text-decoration: none; vertical-align: baseline;&quot; aria-level=&quot;1&quot;&gt;&lt;p dir=&quot;ltr&quot; style=&quot;line-height:1.38;margin-top:0pt;margin-bottom:0pt;&quot; role=&quot;presentation&quot;&gt;&lt;span style=&quot;font-size: 11pt; font-family: &amp;quot;Times New Roman&amp;quot;, serif; color: rgb(0, 0, 0); background-color: transparent; font-weight: 400; font-style: normal; font-variant: normal; text-decoration: none; vertical-align: baseline;&quot;&gt;Chuyển bảng công cá nhân đến nhân viên&amp;nbsp;&lt;/span&gt;&lt;/p&gt;&lt;/li&gt;&lt;li dir=&quot;ltr&quot; style=&quot;list-style-type: decimal; font-size: 11pt; font-family: &amp;quot;Times New Roman&amp;quot;, serif; color: rgb(0, 0, 0); background-color: transparent; font-weight: 400; font-style: normal; font-variant: normal; text-decoration: none; vertical-align: baseline;&quot; aria-level=&quot;1&quot;&gt;&lt;p dir=&quot;ltr&quot; style=&quot;line-height:1.38;margin-top:0pt;margin-bottom:18pt;&quot; role=&quot;presentation&quot;&gt;&lt;span style=&quot;font-size: 11pt; font-family: &amp;quot;Times New Roman&amp;quot;, serif; color: rgb(0, 0, 0); background-color: transparent; font-weight: 400; font-style: normal; font-variant: normal; text-decoration: none; vertical-align: baseline;&quot;&gt;Chuyển bảng công tổng hợp sang mục tính lương&amp;nbsp;&lt;/span&gt;&lt;/p&gt;&lt;/li&gt;&lt;/ol&gt;&lt;/td&gt;&lt;/tr&gt;&lt;tr style=&quot;height:51.75pt&quot;&gt;&lt;td style=&quot;border-left:solid #000000 0.6000000000000001pt;border-right:solid #000000 0.6000000000000001pt;border-bottom:solid #000000 0.6000000000000001pt;border-top:solid #000000 0.6000000000000001pt;vertical-align:top;padding:5pt 5pt 5pt 5pt;overflow:hidden;overflow-wrap:break-word;&quot;&gt;&lt;p dir=&quot;ltr&quot; style=&quot;line-height:1.38;margin-top:18pt;margin-bottom:0pt;&quot;&gt;&lt;span style=&quot;font-size: 11pt; font-family: &amp;quot;Times New Roman&amp;quot;, serif; color: rgb(0, 0, 0); background-color: transparent; font-weight: 400; font-style: normal; font-variant: normal; text-decoration: none; vertical-align: baseline;&quot;&gt;Alternative flows&lt;/span&gt;&lt;/p&gt;&lt;/td&gt;&lt;td style=&quot;border-left:solid #000000 0.6000000000000001pt;border-right:solid #000000 0.6000000000000001pt;border-bottom:solid #000000 0.6000000000000001pt;border-top:solid #000000 0.6000000000000001pt;vertical-align:top;padding:5pt 5pt 5pt 5pt;overflow:hidden;overflow-wrap:break-word;&quot;&gt;&lt;p dir=&quot;ltr&quot; style=&quot;line-height:1.38;margin-top:18pt;margin-bottom:0pt;&quot;&gt;&lt;span style=&quot;font-size: 11pt; font-family: &amp;quot;Times New Roman&amp;quot;, serif; color: rgb(0, 0, 0); background-color: transparent; font-weight: 400; font-style: normal; font-variant: normal; text-decoration: none; vertical-align: baseline;&quot;&gt;2a. Lấy dữ liệu chấm công bằng vân tay đã được ghi nhận từ máy chấm công&lt;/span&gt;&lt;/p&gt;&lt;/td&gt;&lt;/tr&gt;&lt;tr style=&quot;height:443.25pt&quot;&gt;&lt;td style=&quot;border-left:solid #000000 0.6000000000000001pt;border-right:solid #000000 0.6000000000000001pt;border-bottom:solid #000000 0.6000000000000001pt;border-top:solid #000000 0.6000000000000001pt;vertical-align:top;padding:5pt 5pt 5pt 5pt;overflow:hidden;overflow-wrap:break-word;&quot;&gt;&lt;p dir=&quot;ltr&quot; style=&quot;line-height:1.38;margin-top:18pt;margin-bottom:0pt;&quot;&gt;&lt;span style=&quot;font-size: 11pt; font-family: &amp;quot;Times New Roman&amp;quot;, serif; color: rgb(0, 0, 0); background-color: transparent; font-weight: 400; font-style: normal; font-variant: normal; text-decoration: none; vertical-align: baseline;&quot;&gt;Exception flows&lt;/span&gt;&lt;/p&gt;&lt;/td&gt;&lt;td style=&quot;border-left:solid #000000 0.6000000000000001pt;border-right:solid #000000 0.6000000000000001pt;border-bottom:solid #000000 0.6000000000000001pt;border-top:solid #000000 0.6000000000000001pt;vertical-align:top;padding:5pt 5pt 5pt 5pt;overflow:hidden;overflow-wrap:break-word;&quot;&gt;&lt;p dir=&quot;ltr&quot; style=&quot;line-height:1.38;margin-top:18pt;margin-bottom:0pt;&quot;&gt;&lt;span style=&quot;font-size: 11pt; font-family: &amp;quot;Times New Roman&amp;quot;, serif; color: rgb(0, 0, 0); background-color: transparent; font-weight: 400; font-style: normal; font-variant: normal; text-decoration: none; vertical-align: baseline;&quot;&gt;2b. Nếu quá trình lấy dữ liệu chấm công bị lỗi, hệ thống hiển thị thông báo “ Có lỗi xảy ra, kiểm tra lại” và kết thúc&lt;/span&gt;&lt;/p&gt;&lt;p dir=&quot;ltr&quot; style=&quot;line-height:1.38;margin-top:18pt;margin-bottom:0pt;&quot;&gt;&lt;span style=&quot;font-size: 11pt; font-family: &amp;quot;Times New Roman&amp;quot;, serif; color: rgb(0, 0, 0); background-color: transparent; font-weight: 400; font-style: normal; font-variant: normal; text-decoration: none; vertical-align: baseline;&quot;&gt;3a. Nếu có ngày công không nằm trong kỳ chấm công quy định theo tháng, hệ thống sẽ hiển thị thông báo “Tồn tại ngày công không hợp lệ, vui lòng điều chỉnh lại ngày công hợp lệ” và kết thúc&lt;/span&gt;&lt;/p&gt;&lt;p dir=&quot;ltr&quot; style=&quot;line-height:1.38;margin-top:18pt;margin-bottom:0pt;&quot;&gt;&lt;span style=&quot;font-size: 12pt; font-family: &amp;quot;Times New Roman&amp;quot;, serif; color: rgb(0, 0, 0); background-color: transparent; font-weight: 400; font-style: normal; font-variant: normal; text-decoration: none; vertical-align: baseline;&quot;&gt;4a.Nếu hệ thống bị treo hoặc xảy ra lỗi trong quá trình lập bảng công cá nhân và bảng công tổng hợp, hệ thống sẽ hiển thị thông báo “ Đã xảy ra lỗi trong quá trình lập bảng công, vui lòng thử lại “ và kết thúc&lt;/span&gt;&lt;/p&gt;&lt;p dir=&quot;ltr&quot; style=&quot;line-height:1.38;margin-top:18pt;margin-bottom:0pt;&quot;&gt;&lt;span style=&quot;font-size: 12pt; font-family: &amp;quot;Times New Roman&amp;quot;, serif; color: rgb(0, 0, 0); background-color: transparent; font-weight: 400; font-style: normal; font-variant: normal; text-decoration: none; vertical-align: baseline;&quot;&gt;5a. Nếu bảng công không lưu được vào hệ thống hệ thống hiển thị thông báo “ Đã xảy ra lỗi trong quá trình lưu bảng công, vui lòng thử lại” và kêt thúc&lt;/span&gt;&lt;/p&gt;&lt;p dir=&quot;ltr&quot; style=&quot;line-height:1.38;margin-top:18pt;margin-bottom:0pt;&quot;&gt;&lt;span style=&quot;font-size: 12pt; font-family: &amp;quot;Times New Roman&amp;quot;, serif; color: rgb(0, 0, 0); background-color: transparent; font-weight: 400; font-style: normal; font-variant: normal; text-decoration: none; vertical-align: baseline;&quot;&gt;6a.Nếu có lỗi không chuyển được bảng công cá nhân đến cho nhân viên thì hệ thống hiển thị thông báo “ Không chuyển được bảng công cá nhân đến cho nhân viên, vui lòng thử lại” và kết thúc&lt;/span&gt;&lt;/p&gt;&lt;p dir=&quot;ltr&quot; style=&quot;line-height:1.38;margin-top:18pt;margin-bottom:0pt;&quot;&gt;&lt;span style=&quot;font-size: 12pt; font-family: &amp;quot;Times New Roman&amp;quot;, serif; color: rgb(0, 0, 0); background-color: transparent; font-weight: 400; font-style: normal; font-variant: normal; text-decoration: none; vertical-align: baseline;&quot;&gt;7a. Nếu có lỗi không chuyển được bảng công tổng hợp qua mục tính lương thì hệ thống hiển thị thông báo “ Bảng công tồn tại kí hiệu không hợp lệ không thể chuyển được dữ liệu bảng công tổng hợp qua mục tính lương, vui lòng kiểm tra và thử lại” và kết thúc&lt;/span&gt;&lt;/p&gt;&lt;/td&gt;&lt;/tr&gt;&lt;/tbody&gt;&lt;/table&gt;&lt;/div&gt;&lt;br&gt;&lt;/b&gt;" style="text;whiteSpace=wrap;html=1;" vertex="1" parent="1">
          <mxGeometry x="10" y="10" width="560" height="1680" as="geometry" />
        </mxCell>
        <mxCell id="aPlCoS5utpTqL6tOqj2--2" value="&lt;font size=&quot;3&quot;&gt;Hệ thống&lt;/font&gt;" style="swimlane;whiteSpace=wrap;html=1;" vertex="1" parent="1">
          <mxGeometry x="1542" y="11" width="830" height="1917" as="geometry" />
        </mxCell>
        <mxCell id="aPlCoS5utpTqL6tOqj2--3" style="edgeStyle=orthogonalEdgeStyle;rounded=0;orthogonalLoop=1;jettySize=auto;html=1;exitX=0.5;exitY=1;exitDx=0;exitDy=0;entryX=0.5;entryY=0;entryDx=0;entryDy=0;" edge="1" parent="aPlCoS5utpTqL6tOqj2--2" source="aPlCoS5utpTqL6tOqj2--4" target="aPlCoS5utpTqL6tOqj2--9">
          <mxGeometry relative="1" as="geometry" />
        </mxCell>
        <mxCell id="aPlCoS5utpTqL6tOqj2--4" value="Lấy dữ liệu chấm công" style="rounded=1;whiteSpace=wrap;html=1;" vertex="1" parent="aPlCoS5utpTqL6tOqj2--2">
          <mxGeometry x="232" y="85" width="120" height="60" as="geometry" />
        </mxCell>
        <mxCell id="aPlCoS5utpTqL6tOqj2--5" style="edgeStyle=orthogonalEdgeStyle;rounded=0;orthogonalLoop=1;jettySize=auto;html=1;exitX=1;exitY=0.5;exitDx=0;exitDy=0;entryX=0.5;entryY=0;entryDx=0;entryDy=0;" edge="1" parent="aPlCoS5utpTqL6tOqj2--2" source="aPlCoS5utpTqL6tOqj2--9" target="aPlCoS5utpTqL6tOqj2--11">
          <mxGeometry relative="1" as="geometry" />
        </mxCell>
        <mxCell id="aPlCoS5utpTqL6tOqj2--6" value="Bị lỗi" style="edgeLabel;html=1;align=center;verticalAlign=middle;resizable=0;points=[];" connectable="0" vertex="1" parent="aPlCoS5utpTqL6tOqj2--5">
          <mxGeometry x="-0.6483" y="1" relative="1" as="geometry">
            <mxPoint as="offset" />
          </mxGeometry>
        </mxCell>
        <mxCell id="aPlCoS5utpTqL6tOqj2--7" style="edgeStyle=orthogonalEdgeStyle;rounded=0;orthogonalLoop=1;jettySize=auto;html=1;exitX=0;exitY=0.5;exitDx=0;exitDy=0;entryX=0.5;entryY=0;entryDx=0;entryDy=0;" edge="1" parent="aPlCoS5utpTqL6tOqj2--2" source="aPlCoS5utpTqL6tOqj2--9" target="aPlCoS5utpTqL6tOqj2--15">
          <mxGeometry relative="1" as="geometry">
            <mxPoint x="79" y="371" as="targetPoint" />
          </mxGeometry>
        </mxCell>
        <mxCell id="aPlCoS5utpTqL6tOqj2--8" value="Không bị lỗi" style="edgeLabel;html=1;align=center;verticalAlign=middle;resizable=0;points=[];" connectable="0" vertex="1" parent="aPlCoS5utpTqL6tOqj2--7">
          <mxGeometry x="-0.4757" y="1" relative="1" as="geometry">
            <mxPoint as="offset" />
          </mxGeometry>
        </mxCell>
        <mxCell id="aPlCoS5utpTqL6tOqj2--9" value="" style="rhombus;whiteSpace=wrap;html=1;" vertex="1" parent="aPlCoS5utpTqL6tOqj2--2">
          <mxGeometry x="252" y="234" width="80" height="80" as="geometry" />
        </mxCell>
        <mxCell id="aPlCoS5utpTqL6tOqj2--10" style="edgeStyle=orthogonalEdgeStyle;rounded=0;orthogonalLoop=1;jettySize=auto;html=1;exitX=1;exitY=0.5;exitDx=0;exitDy=0;entryX=0.5;entryY=1;entryDx=0;entryDy=0;" edge="1" parent="aPlCoS5utpTqL6tOqj2--2" source="aPlCoS5utpTqL6tOqj2--11" target="aPlCoS5utpTqL6tOqj2--12">
          <mxGeometry relative="1" as="geometry">
            <Array as="points">
              <mxPoint x="782" y="407" />
              <mxPoint x="782" y="1893" />
              <mxPoint x="192" y="1893" />
            </Array>
          </mxGeometry>
        </mxCell>
        <mxCell id="aPlCoS5utpTqL6tOqj2--11" value="Hiển thị thông báo &quot;Có lỗi xảy ra, kiểm tra lại&quot;" style="rounded=1;whiteSpace=wrap;html=1;" vertex="1" parent="aPlCoS5utpTqL6tOqj2--2">
          <mxGeometry x="390" y="377" width="120" height="60" as="geometry" />
        </mxCell>
        <mxCell id="aPlCoS5utpTqL6tOqj2--12" value="" style="ellipse;html=1;shape=endState;fillColor=strokeColor;" vertex="1" parent="aPlCoS5utpTqL6tOqj2--2">
          <mxGeometry x="177" y="1843" width="30" height="30" as="geometry" />
        </mxCell>
        <mxCell id="aPlCoS5utpTqL6tOqj2--13" style="edgeStyle=orthogonalEdgeStyle;rounded=0;orthogonalLoop=1;jettySize=auto;html=1;exitX=1;exitY=0.5;exitDx=0;exitDy=0;entryX=0.5;entryY=0;entryDx=0;entryDy=0;" edge="1" parent="aPlCoS5utpTqL6tOqj2--2" source="aPlCoS5utpTqL6tOqj2--15" target="aPlCoS5utpTqL6tOqj2--16">
          <mxGeometry relative="1" as="geometry" />
        </mxCell>
        <mxCell id="aPlCoS5utpTqL6tOqj2--14" style="edgeStyle=orthogonalEdgeStyle;rounded=0;orthogonalLoop=1;jettySize=auto;html=1;exitX=0;exitY=0.5;exitDx=0;exitDy=0;entryX=0.5;entryY=0;entryDx=0;entryDy=0;" edge="1" parent="aPlCoS5utpTqL6tOqj2--2" source="aPlCoS5utpTqL6tOqj2--15" target="aPlCoS5utpTqL6tOqj2--17">
          <mxGeometry relative="1" as="geometry" />
        </mxCell>
        <mxCell id="aPlCoS5utpTqL6tOqj2--15" value="" style="rhombus;whiteSpace=wrap;html=1;" vertex="1" parent="aPlCoS5utpTqL6tOqj2--2">
          <mxGeometry x="131" y="367" width="80" height="80" as="geometry" />
        </mxCell>
        <mxCell id="aPlCoS5utpTqL6tOqj2--16" value="Lấy dữ liệu chấm công từ máy chấm công" style="rounded=1;whiteSpace=wrap;html=1;" vertex="1" parent="aPlCoS5utpTqL6tOqj2--2">
          <mxGeometry x="234" y="500" width="120" height="60" as="geometry" />
        </mxCell>
        <mxCell id="aPlCoS5utpTqL6tOqj2--17" value="Lấy dữ liệu chấm công từ phần mềm chấm công" style="rounded=1;whiteSpace=wrap;html=1;" vertex="1" parent="aPlCoS5utpTqL6tOqj2--2">
          <mxGeometry x="21" y="500" width="120" height="60" as="geometry" />
        </mxCell>
        <mxCell id="aPlCoS5utpTqL6tOqj2--18" style="edgeStyle=orthogonalEdgeStyle;rounded=0;orthogonalLoop=1;jettySize=auto;html=1;exitX=1;exitY=0.5;exitDx=0;exitDy=0;entryX=1;entryY=1;entryDx=0;entryDy=0;" edge="1" parent="aPlCoS5utpTqL6tOqj2--2" source="aPlCoS5utpTqL6tOqj2--19" target="aPlCoS5utpTqL6tOqj2--12">
          <mxGeometry relative="1" as="geometry">
            <Array as="points">
              <mxPoint x="725" y="757" />
              <mxPoint x="725" y="1869" />
            </Array>
          </mxGeometry>
        </mxCell>
        <mxCell id="aPlCoS5utpTqL6tOqj2--19" value="Hiển thị thông báo &quot; Tồn tại ngày công không hợp lệ, vui lòng điều chỉnh lại ngày công hợp lệ&quot;" style="rounded=1;whiteSpace=wrap;html=1;" vertex="1" parent="aPlCoS5utpTqL6tOqj2--2">
          <mxGeometry x="124" y="721" width="153" height="72" as="geometry" />
        </mxCell>
        <mxCell id="aPlCoS5utpTqL6tOqj2--20" style="edgeStyle=orthogonalEdgeStyle;rounded=0;orthogonalLoop=1;jettySize=auto;html=1;exitX=0.5;exitY=1;exitDx=0;exitDy=0;entryX=0.5;entryY=0;entryDx=0;entryDy=0;" edge="1" parent="aPlCoS5utpTqL6tOqj2--2" source="aPlCoS5utpTqL6tOqj2--21" target="aPlCoS5utpTqL6tOqj2--24">
          <mxGeometry relative="1" as="geometry" />
        </mxCell>
        <mxCell id="aPlCoS5utpTqL6tOqj2--21" value="Tự động lập bảng công cá nhân và bảng công tổng hợp" style="rounded=1;whiteSpace=wrap;html=1;" vertex="1" parent="aPlCoS5utpTqL6tOqj2--2">
          <mxGeometry x="157" y="884" width="120" height="60" as="geometry" />
        </mxCell>
        <mxCell id="aPlCoS5utpTqL6tOqj2--22" style="edgeStyle=orthogonalEdgeStyle;rounded=0;orthogonalLoop=1;jettySize=auto;html=1;exitX=1;exitY=0.5;exitDx=0;exitDy=0;entryX=0.5;entryY=0;entryDx=0;entryDy=0;" edge="1" parent="aPlCoS5utpTqL6tOqj2--2" source="aPlCoS5utpTqL6tOqj2--24" target="aPlCoS5utpTqL6tOqj2--26">
          <mxGeometry relative="1" as="geometry" />
        </mxCell>
        <mxCell id="aPlCoS5utpTqL6tOqj2--23" value="Nếu hệ thống bị treo hoặc xảy ra lỗi" style="edgeLabel;html=1;align=center;verticalAlign=middle;resizable=0;points=[];" connectable="0" vertex="1" parent="aPlCoS5utpTqL6tOqj2--22">
          <mxGeometry x="-0.1943" relative="1" as="geometry">
            <mxPoint as="offset" />
          </mxGeometry>
        </mxCell>
        <mxCell id="aPlCoS5utpTqL6tOqj2--24" value="" style="rhombus;whiteSpace=wrap;html=1;" vertex="1" parent="aPlCoS5utpTqL6tOqj2--2">
          <mxGeometry x="177" y="1010" width="80" height="80" as="geometry" />
        </mxCell>
        <mxCell id="aPlCoS5utpTqL6tOqj2--25" style="edgeStyle=orthogonalEdgeStyle;rounded=0;orthogonalLoop=1;jettySize=auto;html=1;exitX=1;exitY=0.5;exitDx=0;exitDy=0;entryX=1;entryY=0.5;entryDx=0;entryDy=0;" edge="1" parent="aPlCoS5utpTqL6tOqj2--2" source="aPlCoS5utpTqL6tOqj2--26" target="aPlCoS5utpTqL6tOqj2--12">
          <mxGeometry relative="1" as="geometry">
            <Array as="points">
              <mxPoint x="651" y="1153" />
              <mxPoint x="651" y="1858" />
            </Array>
          </mxGeometry>
        </mxCell>
        <mxCell id="aPlCoS5utpTqL6tOqj2--26" value="Hiển thị thông báo &quot; Đã xảy ra lỗi trong quá trình lập bảng công, vui lòng thử lại&quot;" style="rounded=1;whiteSpace=wrap;html=1;" vertex="1" parent="aPlCoS5utpTqL6tOqj2--2">
          <mxGeometry x="430" y="1123" width="120" height="60" as="geometry" />
        </mxCell>
        <mxCell id="aPlCoS5utpTqL6tOqj2--27" style="edgeStyle=orthogonalEdgeStyle;rounded=0;orthogonalLoop=1;jettySize=auto;html=1;exitX=1;exitY=0.5;exitDx=0;exitDy=0;entryX=0;entryY=0.5;entryDx=0;entryDy=0;" edge="1" parent="aPlCoS5utpTqL6tOqj2--2" source="aPlCoS5utpTqL6tOqj2--28" target="aPlCoS5utpTqL6tOqj2--30">
          <mxGeometry relative="1" as="geometry" />
        </mxCell>
        <mxCell id="aPlCoS5utpTqL6tOqj2--28" value="Lưu bảng công vào hệ thống" style="rounded=1;whiteSpace=wrap;html=1;" vertex="1" parent="aPlCoS5utpTqL6tOqj2--2">
          <mxGeometry x="57" y="1248" width="120" height="60" as="geometry" />
        </mxCell>
        <mxCell id="aPlCoS5utpTqL6tOqj2--29" style="edgeStyle=orthogonalEdgeStyle;rounded=0;orthogonalLoop=1;jettySize=auto;html=1;exitX=0.5;exitY=1;exitDx=0;exitDy=0;entryX=0.5;entryY=0;entryDx=0;entryDy=0;" edge="1" parent="aPlCoS5utpTqL6tOqj2--2" source="aPlCoS5utpTqL6tOqj2--30" target="aPlCoS5utpTqL6tOqj2--35">
          <mxGeometry relative="1" as="geometry" />
        </mxCell>
        <mxCell id="aPlCoS5utpTqL6tOqj2--30" value="Tự động chuyển bảng công cá nhân đến nhân viên" style="rounded=1;whiteSpace=wrap;html=1;" vertex="1" parent="aPlCoS5utpTqL6tOqj2--2">
          <mxGeometry x="281" y="1248" width="120" height="60" as="geometry" />
        </mxCell>
        <mxCell id="aPlCoS5utpTqL6tOqj2--31" style="edgeStyle=orthogonalEdgeStyle;rounded=0;orthogonalLoop=1;jettySize=auto;html=1;exitX=0;exitY=0.5;exitDx=0;exitDy=0;entryX=0.5;entryY=0;entryDx=0;entryDy=0;" edge="1" parent="aPlCoS5utpTqL6tOqj2--2" source="aPlCoS5utpTqL6tOqj2--35" target="aPlCoS5utpTqL6tOqj2--39">
          <mxGeometry relative="1" as="geometry">
            <mxPoint x="184" y="1488" as="targetPoint" />
          </mxGeometry>
        </mxCell>
        <mxCell id="aPlCoS5utpTqL6tOqj2--32" value="Không bị lỗi" style="edgeLabel;html=1;align=center;verticalAlign=middle;resizable=0;points=[];" connectable="0" vertex="1" parent="aPlCoS5utpTqL6tOqj2--31">
          <mxGeometry x="-0.2906" y="-2" relative="1" as="geometry">
            <mxPoint as="offset" />
          </mxGeometry>
        </mxCell>
        <mxCell id="aPlCoS5utpTqL6tOqj2--33" style="edgeStyle=orthogonalEdgeStyle;rounded=0;orthogonalLoop=1;jettySize=auto;html=1;exitX=1;exitY=0.5;exitDx=0;exitDy=0;entryX=0.5;entryY=0;entryDx=0;entryDy=0;" edge="1" parent="aPlCoS5utpTqL6tOqj2--2" source="aPlCoS5utpTqL6tOqj2--35" target="aPlCoS5utpTqL6tOqj2--37">
          <mxGeometry relative="1" as="geometry" />
        </mxCell>
        <mxCell id="aPlCoS5utpTqL6tOqj2--34" value="Bị lỗi" style="edgeLabel;html=1;align=center;verticalAlign=middle;resizable=0;points=[];" connectable="0" vertex="1" parent="aPlCoS5utpTqL6tOqj2--33">
          <mxGeometry x="-0.4809" y="1" relative="1" as="geometry">
            <mxPoint as="offset" />
          </mxGeometry>
        </mxCell>
        <mxCell id="aPlCoS5utpTqL6tOqj2--35" value="" style="rhombus;whiteSpace=wrap;html=1;" vertex="1" parent="aPlCoS5utpTqL6tOqj2--2">
          <mxGeometry x="301" y="1367" width="80" height="80" as="geometry" />
        </mxCell>
        <mxCell id="aPlCoS5utpTqL6tOqj2--36" style="edgeStyle=orthogonalEdgeStyle;rounded=0;orthogonalLoop=1;jettySize=auto;html=1;exitX=0.5;exitY=1;exitDx=0;exitDy=0;entryX=1;entryY=0;entryDx=0;entryDy=0;" edge="1" parent="aPlCoS5utpTqL6tOqj2--2" source="aPlCoS5utpTqL6tOqj2--37" target="aPlCoS5utpTqL6tOqj2--12">
          <mxGeometry relative="1" as="geometry">
            <Array as="points">
              <mxPoint x="514" y="1847" />
            </Array>
          </mxGeometry>
        </mxCell>
        <mxCell id="aPlCoS5utpTqL6tOqj2--37" value="Hệ thống hiển thị thông báo &quot; Không chuyển được bảng công cá nhân đến nhân viên , vui lòng thử lại" style="rounded=1;whiteSpace=wrap;html=1;" vertex="1" parent="aPlCoS5utpTqL6tOqj2--2">
          <mxGeometry x="443" y="1475" width="143" height="69" as="geometry" />
        </mxCell>
        <mxCell id="aPlCoS5utpTqL6tOqj2--38" style="edgeStyle=orthogonalEdgeStyle;rounded=0;orthogonalLoop=1;jettySize=auto;html=1;exitX=0.5;exitY=1;exitDx=0;exitDy=0;entryX=0.5;entryY=0;entryDx=0;entryDy=0;" edge="1" parent="aPlCoS5utpTqL6tOqj2--2" source="aPlCoS5utpTqL6tOqj2--39" target="aPlCoS5utpTqL6tOqj2--44">
          <mxGeometry relative="1" as="geometry" />
        </mxCell>
        <mxCell id="aPlCoS5utpTqL6tOqj2--39" value="Tự động chuyển bảng công tổng hợp sang mục tính lương" style="rounded=1;whiteSpace=wrap;html=1;" vertex="1" parent="aPlCoS5utpTqL6tOqj2--2">
          <mxGeometry x="122" y="1484" width="120" height="60" as="geometry" />
        </mxCell>
        <mxCell id="aPlCoS5utpTqL6tOqj2--40" style="edgeStyle=orthogonalEdgeStyle;rounded=0;orthogonalLoop=1;jettySize=auto;html=1;exitX=1;exitY=0.5;exitDx=0;exitDy=0;entryX=0.5;entryY=0;entryDx=0;entryDy=0;" edge="1" parent="aPlCoS5utpTqL6tOqj2--2" source="aPlCoS5utpTqL6tOqj2--44" target="aPlCoS5utpTqL6tOqj2--46">
          <mxGeometry relative="1" as="geometry" />
        </mxCell>
        <mxCell id="aPlCoS5utpTqL6tOqj2--41" value="Bị lỗi" style="edgeLabel;html=1;align=center;verticalAlign=middle;resizable=0;points=[];" connectable="0" vertex="1" parent="aPlCoS5utpTqL6tOqj2--40">
          <mxGeometry x="-0.4776" relative="1" as="geometry">
            <mxPoint as="offset" />
          </mxGeometry>
        </mxCell>
        <mxCell id="aPlCoS5utpTqL6tOqj2--42" style="edgeStyle=orthogonalEdgeStyle;rounded=0;orthogonalLoop=1;jettySize=auto;html=1;exitX=0;exitY=0.5;exitDx=0;exitDy=0;entryX=0;entryY=0.5;entryDx=0;entryDy=0;" edge="1" parent="aPlCoS5utpTqL6tOqj2--2" source="aPlCoS5utpTqL6tOqj2--44" target="aPlCoS5utpTqL6tOqj2--12">
          <mxGeometry relative="1" as="geometry">
            <mxPoint x="71" y="1700" as="targetPoint" />
            <Array as="points">
              <mxPoint x="65" y="1635" />
              <mxPoint x="65" y="1858" />
            </Array>
          </mxGeometry>
        </mxCell>
        <mxCell id="aPlCoS5utpTqL6tOqj2--43" value="Không bị lỗi" style="edgeLabel;html=1;align=center;verticalAlign=middle;resizable=0;points=[];" connectable="0" vertex="1" parent="aPlCoS5utpTqL6tOqj2--42">
          <mxGeometry x="-0.2171" relative="1" as="geometry">
            <mxPoint as="offset" />
          </mxGeometry>
        </mxCell>
        <mxCell id="aPlCoS5utpTqL6tOqj2--44" value="" style="rhombus;whiteSpace=wrap;html=1;" vertex="1" parent="aPlCoS5utpTqL6tOqj2--2">
          <mxGeometry x="142" y="1595" width="80" height="80" as="geometry" />
        </mxCell>
        <mxCell id="aPlCoS5utpTqL6tOqj2--45" style="edgeStyle=orthogonalEdgeStyle;rounded=0;orthogonalLoop=1;jettySize=auto;html=1;exitX=0;exitY=0.5;exitDx=0;exitDy=0;entryX=0.5;entryY=0;entryDx=0;entryDy=0;" edge="1" parent="aPlCoS5utpTqL6tOqj2--2" source="aPlCoS5utpTqL6tOqj2--46" target="aPlCoS5utpTqL6tOqj2--12">
          <mxGeometry relative="1" as="geometry" />
        </mxCell>
        <mxCell id="aPlCoS5utpTqL6tOqj2--46" value="Hệ thống hiển thị thông báo &quot; Bảng công tồn tại kí hiệu không hợp lệ, không thể chuyển được dữ liệu bảng công tổng hợp qua mục tính lương, vui lòng kiểm tra và thử lại" style="rounded=1;whiteSpace=wrap;html=1;" vertex="1" parent="aPlCoS5utpTqL6tOqj2--2">
          <mxGeometry x="255" y="1684" width="197" height="79" as="geometry" />
        </mxCell>
        <mxCell id="aPlCoS5utpTqL6tOqj2--47" value="&lt;font size=&quot;3&quot;&gt;Kế toán&lt;/font&gt;" style="swimlane;whiteSpace=wrap;html=1;" vertex="1" parent="1">
          <mxGeometry x="750" y="10" width="792" height="1917" as="geometry" />
        </mxCell>
        <mxCell id="aPlCoS5utpTqL6tOqj2--48" style="edgeStyle=orthogonalEdgeStyle;rounded=0;orthogonalLoop=1;jettySize=auto;html=1;exitX=1;exitY=0.5;exitDx=0;exitDy=0;entryX=0;entryY=0.5;entryDx=0;entryDy=0;" edge="1" parent="aPlCoS5utpTqL6tOqj2--47" source="aPlCoS5utpTqL6tOqj2--49" target="aPlCoS5utpTqL6tOqj2--50">
          <mxGeometry relative="1" as="geometry" />
        </mxCell>
        <mxCell id="aPlCoS5utpTqL6tOqj2--49" value="" style="ellipse;fillColor=strokeColor;html=1;" vertex="1" parent="aPlCoS5utpTqL6tOqj2--47">
          <mxGeometry x="109" y="92" width="49" height="48" as="geometry" />
        </mxCell>
        <mxCell id="aPlCoS5utpTqL6tOqj2--50" value="Chọn chức năng lập bảng công" style="rounded=1;whiteSpace=wrap;html=1;" vertex="1" parent="aPlCoS5utpTqL6tOqj2--47">
          <mxGeometry x="401" y="86" width="120" height="60" as="geometry" />
        </mxCell>
        <mxCell id="aPlCoS5utpTqL6tOqj2--51" style="edgeStyle=orthogonalEdgeStyle;rounded=0;orthogonalLoop=1;jettySize=auto;html=1;exitX=0.5;exitY=1;exitDx=0;exitDy=0;entryX=0.5;entryY=0;entryDx=0;entryDy=0;" edge="1" parent="aPlCoS5utpTqL6tOqj2--47" source="aPlCoS5utpTqL6tOqj2--52" target="aPlCoS5utpTqL6tOqj2--55">
          <mxGeometry relative="1" as="geometry" />
        </mxCell>
        <mxCell id="aPlCoS5utpTqL6tOqj2--52" value="Kiểm tra dữ liệu chấm công" style="rounded=1;whiteSpace=wrap;html=1;" vertex="1" parent="aPlCoS5utpTqL6tOqj2--47">
          <mxGeometry x="501" y="597" width="120" height="60" as="geometry" />
        </mxCell>
        <mxCell id="aPlCoS5utpTqL6tOqj2--53" style="edgeStyle=orthogonalEdgeStyle;rounded=0;orthogonalLoop=1;jettySize=auto;html=1;exitX=0;exitY=0.5;exitDx=0;exitDy=0;entryX=0.5;entryY=0;entryDx=0;entryDy=0;" edge="1" parent="aPlCoS5utpTqL6tOqj2--47" source="aPlCoS5utpTqL6tOqj2--55" target="aPlCoS5utpTqL6tOqj2--56">
          <mxGeometry relative="1" as="geometry" />
        </mxCell>
        <mxCell id="aPlCoS5utpTqL6tOqj2--54" value="Ngày công nằm trong đúng kì&lt;div&gt;chấm công quy định theo tháng&lt;/div&gt;" style="edgeLabel;html=1;align=center;verticalAlign=middle;resizable=0;points=[];" connectable="0" vertex="1" parent="aPlCoS5utpTqL6tOqj2--53">
          <mxGeometry x="-0.342" y="-2" relative="1" as="geometry">
            <mxPoint as="offset" />
          </mxGeometry>
        </mxCell>
        <mxCell id="aPlCoS5utpTqL6tOqj2--55" value="" style="rhombus;whiteSpace=wrap;html=1;" vertex="1" parent="aPlCoS5utpTqL6tOqj2--47">
          <mxGeometry x="521" y="711" width="80" height="80" as="geometry" />
        </mxCell>
        <mxCell id="aPlCoS5utpTqL6tOqj2--56" value="Nhấn nút &quot;Lập bảng công&quot;" style="rounded=1;whiteSpace=wrap;html=1;" vertex="1" parent="aPlCoS5utpTqL6tOqj2--47">
          <mxGeometry x="274" y="885" width="120" height="60" as="geometry" />
        </mxCell>
        <mxCell id="aPlCoS5utpTqL6tOqj2--57" value="Nhấn nút &quot; Lưu bảng công&quot;" style="rounded=1;whiteSpace=wrap;html=1;" vertex="1" parent="aPlCoS5utpTqL6tOqj2--47">
          <mxGeometry x="568" y="1024" width="120" height="60" as="geometry" />
        </mxCell>
        <mxCell id="aPlCoS5utpTqL6tOqj2--58" style="edgeStyle=orthogonalEdgeStyle;rounded=0;orthogonalLoop=1;jettySize=auto;html=1;exitX=1;exitY=0.5;exitDx=0;exitDy=0;entryX=0;entryY=0.5;entryDx=0;entryDy=0;" edge="1" parent="1" source="aPlCoS5utpTqL6tOqj2--50" target="aPlCoS5utpTqL6tOqj2--4">
          <mxGeometry relative="1" as="geometry" />
        </mxCell>
        <mxCell id="aPlCoS5utpTqL6tOqj2--59" style="edgeStyle=orthogonalEdgeStyle;rounded=0;orthogonalLoop=1;jettySize=auto;html=1;exitX=0.5;exitY=1;exitDx=0;exitDy=0;entryX=1;entryY=0.25;entryDx=0;entryDy=0;" edge="1" parent="1" source="aPlCoS5utpTqL6tOqj2--17" target="aPlCoS5utpTqL6tOqj2--52">
          <mxGeometry relative="1" as="geometry" />
        </mxCell>
        <mxCell id="aPlCoS5utpTqL6tOqj2--60" style="edgeStyle=orthogonalEdgeStyle;rounded=0;orthogonalLoop=1;jettySize=auto;html=1;exitX=0.5;exitY=1;exitDx=0;exitDy=0;entryX=1;entryY=0.5;entryDx=0;entryDy=0;" edge="1" parent="1" source="aPlCoS5utpTqL6tOqj2--16" target="aPlCoS5utpTqL6tOqj2--52">
          <mxGeometry relative="1" as="geometry" />
        </mxCell>
        <mxCell id="aPlCoS5utpTqL6tOqj2--61" style="edgeStyle=orthogonalEdgeStyle;rounded=0;orthogonalLoop=1;jettySize=auto;html=1;exitX=1;exitY=0.5;exitDx=0;exitDy=0;entryX=0;entryY=0.5;entryDx=0;entryDy=0;" edge="1" parent="1" source="aPlCoS5utpTqL6tOqj2--55" target="aPlCoS5utpTqL6tOqj2--19">
          <mxGeometry relative="1" as="geometry">
            <mxPoint x="1380" y="759" as="sourcePoint" />
            <mxPoint x="1677" y="759" as="targetPoint" />
          </mxGeometry>
        </mxCell>
        <mxCell id="aPlCoS5utpTqL6tOqj2--62" value="&lt;span style=&quot;color: rgba(0, 0, 0, 0); font-family: monospace; font-size: 0px; text-align: start;&quot;&gt;%3CmxGraphModel%3E%3Croot%3E%3CmxCell%20id%3D%220%22%2F%3E%3CmxCell%20id%3D%221%22%20parent%3D%220%22%2F%3E%3CmxCell%20id%3D%222%22%20value%3D%22%26lt%3Bfont%20size%3D%26quot%3B3%26quot%3B%26gt%3BH%E1%BB%87%20th%E1%BB%91ng%26lt%3B%2Ffont%26gt%3B%22%20style%3D%22swimlane%3BwhiteSpace%3Dwrap%3Bhtml%3D1%3BfillColor%3D%23f5f5f5%3BstrokeColor%3D%23666666%3BgradientColor%3D%23b3b3b3%3B%22%20vertex%3D%221%22%20parent%3D%221%22%3E%3CmxGeometry%20x%3D%22370%22%20y%3D%22-950%22%20width%3D%22830%22%20height%3D%221179%22%20as%3D%22geometry%22%2F%3E%3C%2FmxCell%3E%3CmxCell%20id%3D%223%22%20style%3D%22edgeStyle%3DorthogonalEdgeStyle%3Brounded%3D0%3BorthogonalLoop%3D1%3BjettySize%3Dauto%3Bhtml%3D1%3BexitX%3D0.5%3BexitY%3D1%3BexitDx%3D0%3BexitDy%3D0%3BentryX%3D0.5%3BentryY%3D0%3BentryDx%3D0%3BentryDy%3D0%3B%22%20edge%3D%221%22%20parent%3D%222%22%20source%3D%224%22%20target%3D%229%22%3E%3CmxGeometry%20relative%3D%221%22%20as%3D%22geometry%22%2F%3E%3C%2FmxCell%3E%3CmxCell%20id%3D%224%22%20value%3D%22L%E1%BA%A5y%20d%E1%BB%AF%20li%E1%BB%87u%20ch%E1%BA%A5m%20c%C3%B4ng%22%20style%3D%22rounded%3D1%3BwhiteSpace%3Dwrap%3Bhtml%3D1%3B%22%20vertex%3D%221%22%20parent%3D%222%22%3E%3CmxGeometry%20x%3D%22232%22%20y%3D%2285%22%20width%3D%22120%22%20height%3D%2260%22%20as%3D%22geometry%22%2F%3E%3C%2FmxCell%3E%3CmxCell%20id%3D%225%22%20style%3D%22edgeStyle%3DorthogonalEdgeStyle%3Brounded%3D0%3BorthogonalLoop%3D1%3BjettySize%3Dauto%3Bhtml%3D1%3BexitX%3D1%3BexitY%3D0.5%3BexitDx%3D0%3BexitDy%3D0%3BentryX%3D0.5%3BentryY%3D0%3BentryDx%3D0%3BentryDy%3D0%3B%22%20edge%3D%221%22%20parent%3D%222%22%20source%3D%229%22%20target%3D%2211%22%3E%3CmxGeometry%20relative%3D%221%22%20as%3D%22geometry%22%2F%3E%3C%2FmxCell%3E%3CmxCell%20id%3D%226%22%20value%3D%22B%E1%BB%8B%20l%E1%BB%97i%22%20style%3D%22edgeLabel%3Bhtml%3D1%3Balign%3Dcenter%3BverticalAlign%3Dmiddle%3Bresizable%3D0%3Bpoints%3D%5B%5D%3B%22%20vertex%3D%221%22%20connectable%3D%220%22%20parent%3D%225%22%3E%3CmxGeometry%20x%3D%22-0.6483%22%20y%3D%221%22%20relative%3D%221%22%20as%3D%22geometry%22%3E%3CmxPoint%20as%3D%22offset%22%2F%3E%3C%2FmxGeometry%3E%3C%2FmxCell%3E%3CmxCell%20id%3D%227%22%20style%3D%22edgeStyle%3DorthogonalEdgeStyle%3Brounded%3D0%3BorthogonalLoop%3D1%3BjettySize%3Dauto%3Bhtml%3D1%3BexitX%3D0%3BexitY%3D0.5%3BexitDx%3D0%3BexitDy%3D0%3BentryX%3D0.5%3BentryY%3D0%3BentryDx%3D0%3BentryDy%3D0%3B%22%20edge%3D%221%22%20parent%3D%222%22%20source%3D%229%22%20target%3D%2215%22%3E%3CmxGeometry%20relative%3D%221%22%20as%3D%22geometry%22%3E%3CmxPoint%20x%3D%2279%22%20y%3D%22371%22%20as%3D%22targetPoint%22%2F%3E%3C%2FmxGeometry%3E%3C%2FmxCell%3E%3CmxCell%20id%3D%228%22%20value%3D%22Kh%C3%B4ng%20b%E1%BB%8B%20l%E1%BB%97i%22%20style%3D%22edgeLabel%3Bhtml%3D1%3Balign%3Dcenter%3BverticalAlign%3Dmiddle%3Bresizable%3D0%3Bpoints%3D%5B%5D%3B%22%20vertex%3D%221%22%20connectable%3D%220%22%20parent%3D%227%22%3E%3CmxGeometry%20x%3D%22-0.4757%22%20y%3D%221%22%20relative%3D%221%22%20as%3D%22geometry%22%3E%3CmxPoint%20as%3D%22offset%22%2F%3E%3C%2FmxGeometry%3E%3C%2FmxCell%3E%3CmxCell%20id%3D%229%22%20value%3D%22%22%20style%3D%22rhombus%3BwhiteSpace%3Dwrap%3Bhtml%3D1%3B%22%20vertex%3D%221%22%20parent%3D%222%22%3E%3CmxGeometry%20x%3D%22252%22%20y%3D%22234%22%20width%3D%2280%22%20height%3D%2280%22%20as%3D%22geometry%22%2F%3E%3C%2FmxCell%3E%3CmxCell%20id%3D%2210%22%20style%3D%22edgeStyle%3DorthogonalEdgeStyle%3Brounded%3D0%3BorthogonalLoop%3D1%3BjettySize%3Dauto%3Bhtml%3D1%3BexitX%3D1%3BexitY%3D0.5%3BexitDx%3D0%3BexitDy%3D0%3BentryX%3D0.5%3BentryY%3D0%3BentryDx%3D0%3BentryDy%3D0%3B%22%20edge%3D%221%22%20parent%3D%222%22%20source%3D%2211%22%20target%3D%2212%22%3E%3CmxGeometry%20relative%3D%221%22%20as%3D%22geometry%22%2F%3E%3C%2FmxCell%3E%3CmxCell%20id%3D%2211%22%20value%3D%22Hi%E1%BB%83n%20th%E1%BB%8B%20th%C3%B4ng%20b%C3%A1o%20%26quot%3BC%C3%B3%20l%E1%BB%97i%20x%E1%BA%A3y%20ra%2C%20ki%E1%BB%83m%20tra%20l%E1%BA%A1i%26quot%3B%22%20style%3D%22rounded%3D1%3BwhiteSpace%3Dwrap%3Bhtml%3D1%3B%22%20vertex%3D%221%22%20parent%3D%222%22%3E%3CmxGeometry%20x%3D%22390%22%20y%3D%22377%22%20width%3D%22120%22%20height%3D%2260%22%20as%3D%22geometry%22%2F%3E%3C%2FmxCell%3E%3CmxCell%20id%3D%2212%22%20value%3D%22%22%20style%3D%22ellipse%3Bhtml%3D1%3Bshape%3DendState%3BfillColor%3DstrokeColor%3B%22%20vertex%3D%221%22%20parent%3D%222%22%3E%3CmxGeometry%20x%3D%22644%22%20y%3D%22583%22%20width%3D%2230%22%20height%3D%2230%22%20as%3D%22geometry%22%2F%3E%3C%2FmxCell%3E%3CmxCell%20id%3D%2213%22%20style%3D%22edgeStyle%3DorthogonalEdgeStyle%3Brounded%3D0%3BorthogonalLoop%3D1%3BjettySize%3Dauto%3Bhtml%3D1%3BexitX%3D1%3BexitY%3D0.5%3BexitDx%3D0%3BexitDy%3D0%3BentryX%3D0.5%3BentryY%3D0%3BentryDx%3D0%3BentryDy%3D0%3B%22%20edge%3D%221%22%20parent%3D%222%22%20source%3D%2215%22%20target%3D%2216%22%3E%3CmxGeometry%20relative%3D%221%22%20as%3D%22geometry%22%2F%3E%3C%2FmxCell%3E%3CmxCell%20id%3D%2214%22%20style%3D%22edgeStyle%3DorthogonalEdgeStyle%3Brounded%3D0%3BorthogonalLoop%3D1%3BjettySize%3Dauto%3Bhtml%3D1%3BexitX%3D0%3BexitY%3D0.5%3BexitDx%3D0%3BexitDy%3D0%3BentryX%3D0.5%3BentryY%3D0%3BentryDx%3D0%3BentryDy%3D0%3B%22%20edge%3D%221%22%20parent%3D%222%22%20source%3D%2215%22%20target%3D%2217%22%3E%3CmxGeometry%20relative%3D%221%22%20as%3D%22geometry%22%2F%3E%3C%2FmxCell%3E%3CmxCell%20id%3D%2215%22%20value%3D%22%22%20style%3D%22rhombus%3BwhiteSpace%3Dwrap%3Bhtml%3D1%3B%22%20vertex%3D%221%22%20parent%3D%222%22%3E%3CmxGeometry%20x%3D%22131%22%20y%3D%22367%22%20width%3D%2280%22%20height%3D%2280%22%20as%3D%22geometry%22%2F%3E%3C%2FmxCell%3E%3CmxCell%20id%3D%2216%22%20value%3D%22L%E1%BA%A5y%20d%E1%BB%AF%20li%E1%BB%87u%20ch%E1%BA%A5m%20c%C3%B4ng%20t%E1%BB%AB%20m%C3%A1y%20ch%E1%BA%A5m%20c%C3%B4ng%22%20style%3D%22rounded%3D1%3BwhiteSpace%3Dwrap%3Bhtml%3D1%3B%22%20vertex%3D%221%22%20parent%3D%222%22%3E%3CmxGeometry%20x%3D%22234%22%20y%3D%22500%22%20width%3D%22120%22%20height%3D%2260%22%20as%3D%22geometry%22%2F%3E%3C%2FmxCell%3E%3CmxCell%20id%3D%2217%22%20value%3D%22L%E1%BA%A5y%20d%E1%BB%AF%20li%E1%BB%87u%20ch%E1%BA%A5m%20c%C3%B4ng%20t%E1%BB%AB%20ph%E1%BA%A7n%20m%E1%BB%81m%20ch%E1%BA%A5m%20c%C3%B4ng%22%20style%3D%22rounded%3D1%3BwhiteSpace%3Dwrap%3Bhtml%3D1%3B%22%20vertex%3D%221%22%20parent%3D%222%22%3E%3CmxGeometry%20x%3D%2221%22%20y%3D%22500%22%20width%3D%22120%22%20height%3D%2260%22%20as%3D%22geometry%22%2F%3E%3C%2FmxCell%3E%3CmxCell%20id%3D%2218%22%20value%3D%22%22%20style%3D%22rounded%3D1%3BwhiteSpace%3Dwrap%3Bhtml%3D1%3B%22%20vertex%3D%221%22%20parent%3D%222%22%3E%3CmxGeometry%20x%3D%2286%22%20y%3D%22718%22%20width%3D%22120%22%20height%3D%2260%22%20as%3D%22geometry%22%2F%3E%3C%2FmxCell%3E%3C%2Froot%3E%3C%2FmxGraphModel%3E&lt;/span&gt;" style="edgeLabel;html=1;align=center;verticalAlign=middle;resizable=0;points=[];" connectable="0" vertex="1" parent="aPlCoS5utpTqL6tOqj2--61">
          <mxGeometry x="-0.1032" y="-1" relative="1" as="geometry">
            <mxPoint as="offset" />
          </mxGeometry>
        </mxCell>
        <mxCell id="aPlCoS5utpTqL6tOqj2--63" value="Ngày công không nằm trong&amp;nbsp;&lt;div&gt;kì chấm công quy định theo tháng&lt;/div&gt;" style="edgeLabel;html=1;align=center;verticalAlign=middle;resizable=0;points=[];" connectable="0" vertex="1" parent="aPlCoS5utpTqL6tOqj2--61">
          <mxGeometry x="-0.075" y="1" relative="1" as="geometry">
            <mxPoint as="offset" />
          </mxGeometry>
        </mxCell>
        <mxCell id="aPlCoS5utpTqL6tOqj2--64" style="edgeStyle=orthogonalEdgeStyle;rounded=0;orthogonalLoop=1;jettySize=auto;html=1;exitX=1;exitY=0.5;exitDx=0;exitDy=0;entryX=0;entryY=0.5;entryDx=0;entryDy=0;" edge="1" parent="1" source="aPlCoS5utpTqL6tOqj2--56" target="aPlCoS5utpTqL6tOqj2--21">
          <mxGeometry relative="1" as="geometry" />
        </mxCell>
        <mxCell id="aPlCoS5utpTqL6tOqj2--65" style="edgeStyle=orthogonalEdgeStyle;rounded=0;orthogonalLoop=1;jettySize=auto;html=1;exitX=0;exitY=0.5;exitDx=0;exitDy=0;entryX=1;entryY=0.5;entryDx=0;entryDy=0;" edge="1" parent="1" source="aPlCoS5utpTqL6tOqj2--24" target="aPlCoS5utpTqL6tOqj2--57">
          <mxGeometry relative="1" as="geometry" />
        </mxCell>
        <mxCell id="aPlCoS5utpTqL6tOqj2--66" value="Hệ thống hoạt động tốt" style="edgeLabel;html=1;align=center;verticalAlign=middle;resizable=0;points=[];" connectable="0" vertex="1" parent="aPlCoS5utpTqL6tOqj2--65">
          <mxGeometry x="-0.231" y="1" relative="1" as="geometry">
            <mxPoint as="offset" />
          </mxGeometry>
        </mxCell>
        <mxCell id="aPlCoS5utpTqL6tOqj2--67" style="edgeStyle=orthogonalEdgeStyle;rounded=0;orthogonalLoop=1;jettySize=auto;html=1;exitX=0.5;exitY=1;exitDx=0;exitDy=0;entryX=0;entryY=0.5;entryDx=0;entryDy=0;" edge="1" parent="1" source="aPlCoS5utpTqL6tOqj2--57" target="aPlCoS5utpTqL6tOqj2--28">
          <mxGeometry relative="1" as="geometry" />
        </mxCell>
      </root>
    </mxGraphModel>
  </diagram>
</mxfile>
